<svg width="240" height="60" viewBox="0 0 240 60" xmlns="http://www.w3.org/2000/svg" fill="none">
  <!-- Sun -->
  <circle cx="30" cy="30" r="8" fill="#FFD966"/>
  <g stroke="#FFD966" stroke-width="2">
    <line x1="30" y1="12" x2="30" y2="4"/>
    <line x1="30" y1="48" x2="30" y2="56"/>
    <line x1="48" y1="30" x2="56" y2="30"/>
    <line x1="12" y1="30" x2="4" y2="30"/>
    <line x1="43.2" y1="16.8" x2="49.2" y2="10.8"/>
    <line x1="16.8" y1="43.2" x2="10.8" y2="49.2"/>
    <line x1="43.2" y1="43.2" x2="49.2" y2="49.2"/>
    <line x1="16.8" y1="16.8" x2="10.8" y2="10.8"/>
  </g>

  <!-- Gear -->
  <g transform="translate(70, 15) scale(0.6)">
    <circle cx="30" cy="30" r="10" fill="#AAAAAA"/>
    <g stroke="#AAAAAA" stroke-width="3">
      <line x1="30" y1="0" x2="30" y2="10"/>
      <line x1="30" y1="50" x2="30" y2="60"/>
      <line x1="0" y1="30" x2="10" y2="30"/>
      <line x1="50" y1="30" x2="60" y2="30"/>
      <line x1="45.36" y1="14.64" x2="52.73" y2="7.27"/>
      <line x1="14.64" y1="45.36" x2="7.27" y2="52.73"/>
      <line x1="45.36" y1="45.36" x2="52.73" y2="52.73"/>
      <line x1="14.64" y1="14.64" x2="7.27" y2="7.27"/>
    </g>
  </g>

  <!-- Brand Text -->
  <text x="120" y="38" font-family="Verdana, sans-serif" font-size="28" fill="#EEEEEE">sunayi</text>
</svg>